<svg width="70" height="60" viewBox="0 0 70 60" fill="none" xmlns="http://www.w3.org/2000/svg">
<path d="M65.95 36.32L63.7 36.32L63.71 29.44C63.73 23.87 59.22 19.35 53.65 19.33L35.1 20.46L16.38 19.25C10.81 19.24 6.29 23.74 6.28 29.31L6.26 36.52L4.03 36.51C1.42 36.5 -0.51 38.96 0.12 41.49L0.69 43.8C1.14 45.59 2.74 46.85 4.58 46.86L7.32 46.86C11.84 54.7 29.24 58.17 31.96 58.71C34.15 59.15 35.65 59.08 37.87 58.73C40.72 58.28 59.33 55.17 63.03 46.66L65.35 46.67C67.19 46.67 68.8 45.42 69.25 43.63L69.83 41.33C70.48 38.79 68.56 36.33 65.95 36.32Z" fill="#FFDEBD"/>
<path d="M38.05 47.72L32.25 47.71L33.86 39.05C33.97 38.42 34.52 37.96 35.16 37.96H35.18C35.82 37.96 36.37 38.42 36.48 39.05L38.05 47.72Z" fill="#DB9B76"/>
<path d="M50.61 38.07C51.82 39.23 51.61 41.58 50.05 42.6C48.06 43.89 45.47 42.35 45.61 40.01C45.72 38.17 47.73 37.08 49.43 37.45C49.91 37.56 50.3 37.77 50.61 38.07Z" fill="#242A36"/>
<path d="M22.21 42.19C23.33 41.07 23.32 39.25 22.2 38.12C21.07 36.99 19.25 36.98 18.13 38.09C17.01 39.2 17.02 41.02 18.14 42.16C19.27 43.29 21.09 43.3 22.21 42.19Z" fill="#242A36"/>
<path d="M23.79 48.4C24.1 50.33 22.78 52.15 20.84 52.45C18.91 52.76 17.1 51.43 16.79 49.5C16.49 47.57 17.81 45.75 19.74 45.45C21.68 45.15 23.49 46.47 23.79 48.4Z" fill="#FCA490"/>
<path d="M51.68 49.1C51.99 51.04 50.67 52.85 48.73 53.16C46.8 53.46 44.99 52.14 44.68 50.2C44.38 48.27 45.7 46.46 47.63 46.15C49.57 45.85 51.38 47.17 51.68 49.1Z" fill="#FCA490"/>
<path d="M44.11 29.1C44.11 29.1 53.71 30.46 54.83 35.11C45.55 30.83 44.11 29.1 44.11 29.1Z" fill="#612727"/>
<path d="M12.15 35.46C12.15 35.46 17.82 28.96 25.41 30.25C14.85 33.82 12.15 35.46 12.15 35.46Z" fill="#612727"/>
<path d="M19.42 38.82C19.36 38.45 19.02 38.19 18.65 38.25C18.28 38.31 18.02 38.66 18.08 39.03C18.14 39.4 18.49 39.65 18.86 39.59C19.22 39.53 19.48 39.19 19.42 38.82Z" fill="white"/>
<path d="M47.86 39.08C47.8 38.71 47.45 38.45 47.09 38.51C46.72 38.57 46.46 38.92 46.52 39.29C46.58 39.66 46.93 39.91 47.3 39.85C47.66 39.79 47.92 39.44 47.86 39.08Z" fill="white"/>
<path d="M24.49 20.06C34.23 28.66 48.48 19.99 48.48 19.99C48.48 19.99 48.46 19.98 48.41 19.98L53.66 19.66C59.16 19.67 63.61 24.14 63.6 29.64L63.59 33.63C63.24 39.21 63.24 39.78 63.24 39.78L66.68 36.93L67.79 28.65L68.23 23.29L68.23 23.13C68.25 14.47 61.24 7.43 52.57 7.41L34.57 7.36C33.77 3.7 33.03 0 33.03 0L28.5 4.05L25.34 0.57L22.15 4.95C22.15 4.95 18.01 0.92 16.3 0.91C16.62 3.27 17.03 5.4 17.54 7.33L17.47 7.33C8.81 7.3 1.77 14.31 1.75 22.98V23.14L3.81 37.26C3.91 37.23 7.23 39.78 7.23 39.78C7.23 39.78 7.23 39.23 6.9 33.88L6.91 29.51C6.92 24.01 11.38 19.56 16.88 19.57L24.49 20.06Z" fill="black"/>
<path d="M37.26 53.37C36.59 52.78 35.96 52.34 35.05 52.3C34.17 52.27 33.14 52.61 32.53 53.24C32.3 53.48 32.63 53.88 32.86 53.64C33.38 53.1 34.04 52.94 34.76 52.83C35.66 52.69 36.33 53.23 36.96 53.78C37.21 54 37.51 53.58 37.26 53.37Z" fill="#966A52"/>
<path d="M66.75 43.5H64.1L64.49 40.27H64.52C65.75 40.27 66.75 41.71 66.75 43.47V43.5H66.75Z" fill="#DB9B76"/>
<path d="M2.83 42.95H5.48L5.08 39.72H5.06C3.83 39.72 2.83 41.15 2.83 42.92V42.95H2.83Z" fill="#DB9B76"/>
</svg>
