<svg width="52" height="75" viewBox="0 0 52 75" fill="none" xmlns="http://www.w3.org/2000/svg">
<path d="M17.32 42.65H10.81V66.64H17.32V42.65Z" fill="#FFDEBD"/>
<path d="M30.58 42.65H24.06V66.64H30.58V42.65Z" fill="#FFDEBD"/>
<path d="M31.71 32.19H9.16V45.76H19.23V40.69H21.69V45.76H31.71V32.19Z" fill="#3159AD"/>
<path d="M19.42 44.44H9.09V47.48H19.42V44.44Z" fill="#5D79B3"/>
<path d="M32.18 44.44H21.24V47.48H32.18V44.44Z" fill="#5D79B3"/>
<path d="M35.98 6.8H34.59C34.61 6.86 34.61 6.92 34.61 6.99V11.18H35.99C42.23 11.18 47.31 16.26 47.31 22.5V22.78C47.31 28.03 43.71 32.46 38.85 33.73C37.77 34.01 36.7 34.07 35.59 34.07C35.28 34.07 35.04 34.31 35.04 34.62C35.04 34.92 35.28 35.17 35.59 35.17H35.4C35.09 35.17 34.85 35.42 34.85 35.72C34.85 36.02 35.09 36.27 35.4 36.27H35.18C34.87 36.27 34.62 36.52 34.62 36.82C34.62 37.13 34.87 37.37 35.18 37.37H34.97C34.66 37.37 34.42 37.62 34.42 37.93C34.42 38.23 34.67 38.48 34.97 38.48C35.7 38.48 36.43 38.48 37.16 38.43C37.52 38.4 37.87 38.36 38.22 38.31C45.82 37.23 51.69 30.67 51.69 22.78V22.5C51.68 13.85 44.64 6.8 35.98 6.8Z" fill="#FFDEBD"/>
<path d="M23.01 0.59H17.83V8.86H23.01V0.59Z" fill="#DB9B76"/>
<path d="M36.53 6.63H22.01H20.63H18.65C18.46 6.63 18.27 6.63 18.09 6.64C16.99 6.65 15.81 6.67 15.51 6.68C10.6 6.86 7.02 8.37 3.96 17.41L6.69 18.42C6.68 18.48 6.68 18.54 6.68 18.6V38.85H33.98V18.6C33.98 15.89 33.08 13.39 31.56 11.39H36.53V6.63Z" fill="black"/>
<path d="M8.75 16.57C7.5 15.77 6.25 14.97 5.02 14.15C2.22 20.15 1.1 29.48 1.65 42.03L6.02 41.84C5.42 28.3 6.98 20.76 8.75 16.57Z" fill="#FFDEBD"/>
<path d="M7.19 40.83L6.42 39.68C6.39 39.64 6.37 39.61 6.35 39.57L6.32 39.53L6.31 39.53C6.03 39.17 5.58 38.93 5.08 38.93H2.52C1.65 38.93 0.95 39.63 0.95 40.5V43.32V44.01V44.04C0.95 44.43 1.27 44.75 1.66 44.75H1.67C2.06 44.75 2.37 44.43 2.37 44.04C2.37 44.43 2.69 44.75 3.08 44.75H3.09C3.48 44.75 3.8 44.43 3.8 44.04V44.01H3.8V44.04C3.8 44.43 4.12 44.75 4.51 44.75H4.52C4.91 44.75 5.23 44.43 5.23 44.04C5.23 44.43 5.54 44.75 5.93 44.75H5.95C6.34 44.75 6.65 44.43 6.65 44.04V44.01V43.32V42.63L6.82 42.53C7.4 42.17 7.57 41.4 7.19 40.83Z" fill="#FFDEBD"/>
<path d="M44.19 31.17C48.17 27.19 48.17 20.75 44.19 16.77C40.22 12.8 33.77 12.8 29.8 16.77C25.82 20.75 25.82 27.19 29.8 31.17C33.77 35.14 40.22 35.14 44.19 31.17Z" fill="#FE4D01"/>
<path d="M42.21 23.97C42.21 21.43 43.17 19.11 44.73 17.35C44.65 17.25 44.56 17.16 44.48 17.06C42.83 18.9 41.83 21.32 41.83 23.97C41.83 26.62 42.83 29.04 44.48 30.87C44.56 30.78 44.65 30.68 44.73 30.59C43.17 28.82 42.21 26.51 42.21 23.97Z" fill="#B62714"/>
<path d="M31.77 23.97C31.77 21.43 30.82 19.11 29.26 17.35C29.34 17.25 29.43 17.16 29.51 17.06C31.15 18.9 32.15 21.32 32.15 23.97C32.15 26.62 31.15 29.04 29.51 30.87C29.43 30.78 29.34 30.68 29.26 30.59C30.82 28.82 31.77 26.51 31.77 23.97Z" fill="#B62714"/>
<path d="M32.9 75.97V75.66C32.9 72.53 30.37 70 27.24 70H27.13C24 70 21.47 72.53 21.47 75.66V75.97C21.47 75.97 22.28 76.96 27.31 76.96C32.34 76.96 32.9 75.97 32.9 75.97Z" fill="#525252"/>
<path d="M30.64 62.11H23.97V72.75L25.16 73.14C25.56 72.52 26.3 72.03 27.16 72.03H27.21C28.09 72.03 28.86 72.56 29.25 73.21L30.64 72.75V62.11H30.64Z" fill="#232323"/>
</svg>
