<svg width="192" height="159" viewBox="0 0 192 159" fill="none" xmlns="http://www.w3.org/2000/svg">
<g filter="url(#filter0_d)">
<path d="M135 49.5C135 51.13 134.83 52.72 134.52 54.26C142.74 55.69 149 62.86 149 71.5C149 80.68 141.93 88.21 132.93 88.94C132.98 89.46 133 89.97 133 90.5C133 100.17 125.17 108 115.5 108C113.87 108 112.29 107.78 110.79 107.36C106.42 110.29 101.16 112 95.5 112C87.9 112 81.03 108.92 76.05 103.94C72.34 106.5 67.85 108 63 108C50.3 108 40 97.7 40 85C40 83.79 40.09 82.6 40.27 81.44C34.21 78.69 30 72.59 30 65.5C30 56.28 37.13 48.73 46.17 48.05C47.36 39.54 54.67 33 63.5 33C66.45 33 69.22 33.73 71.66 35.02C75.59 31.88 80.58 30 86 30C89.46 30 92.73 30.76 95.67 32.13C99.85 28.32 105.4 26 111.5 26C124.48 26 135 36.52 135 49.5Z" fill="white"/>
<path d="M152.16 108.7C152.95 112.76 150.29 116.7 146.23 117.49C142.16 118.29 138.22 115.63 137.43 111.57C136.64 107.5 139.3 103.56 143.36 102.77C147.43 101.98 151.37 104.63 152.16 108.7Z" fill="white"/>
<path d="M158.75 124.23C160.64 123.86 161.88 122.02 161.51 120.12C161.14 118.22 159.31 116.99 157.41 117.35C155.51 117.72 154.27 119.56 154.64 121.46C155.01 123.36 156.85 124.6 158.75 124.23Z" fill="white"/>
</g>
<path d="M67.3 61.11C67.47 61.13 106.82 59.28 106.82 59.28L104.04 51.73L66.6 53.17L67.3 61.11Z" fill="#515151"/>
<path d="M72.52 56.36C72.87 53.39 69.95 50.35 67.73 50.35C65.51 50.35 63.39 51.97 63.04 54.94C62.69 57.92 64.63 61.11 67.18 61.11C69.73 61.11 72.17 59.34 72.52 56.36Z" fill="#A3D3CE"/>
<path d="M66.9 50.41C68.06 50.38 69.73 50.71 70.87 52.03C71.76 53.05 72.54 54.51 72.4 57.14C72.08 63.06 64.38 81.73 73.23 91.85C95.81 92.09 107.66 90.35 107.66 90.35C107.66 90.35 105.83 87.55 104.92 82.69C104.16 78.67 104.55 74.04 106.04 66.79C107.78 58.36 110.47 51.45 103.01 50.43C98.01 49.75 68.36 49.98 66.9 50.41Z" fill="#FDCD09"/>
<path d="M101.33 58.03L78.8 58.27L78.81 58.98L101.33 58.74L101.33 58.03Z" fill="black"/>
<path d="M100.76 62.19L78.23 62.43L78.24 63.14L100.77 62.9L100.76 62.19Z" fill="black"/>
<path d="M99.81 66.35L77.28 66.58L77.29 67.3L99.81 67.06L99.81 66.35Z" fill="black"/>
<path d="M98.57 74.66L76.04 74.9L76.05 75.61L98.58 75.37L98.57 74.66Z" fill="black"/>
<path d="M98.89 70.5L76.36 70.74L76.37 71.46L98.9 71.22L98.89 70.5Z" fill="black"/>
<path d="M113.09 81.4L91.25 81.31L91.21 90.53H91.21C91.21 90.53 91.21 90.53 91.21 90.53C91.2 92.97 96.08 94.97 102.11 95C108.14 95.03 113.03 93.07 113.05 90.62C113.05 90.62 113.05 90.62 113.05 90.62H113.05L113.09 81.4Z" fill="black"/>
<path d="M103.03 91.04L83.28 82.07L83.31 81.21L101.24 72.33L121 80.46L121 81.3L103.03 91.04Z" fill="black"/>
<path d="M103.04 90.2L83.28 81.22L101.25 71.48L121 80.46L103.04 90.2Z" fill="#515151"/>
<defs>
<filter id="filter0_d" x="0" y="0" width="191.58" height="158.29" filterUnits="userSpaceOnUse" color-interpolation-filters="sRGB">
<feFlood flood-opacity="0" result="BackgroundImageFix"/>
<feColorMatrix in="SourceAlpha" type="matrix" values="0 0 0 0 0 0 0 0 0 0 0 0 0 0 0 0 0 0 127 0"/>
<feOffset dy="4"/>
<feGaussianBlur stdDeviation="15"/>
<feColorMatrix type="matrix" values="0 0 0 0 0 0 0 0 0 0 0 0 0 0 0 0 0 0 0.2 0"/>
<feBlend mode="normal" in2="BackgroundImageFix" result="effect1_dropShadow"/>
<feBlend mode="normal" in="SourceGraphic" in2="effect1_dropShadow" result="shape"/>
</filter>
</defs>
</svg>
