<svg width="194" height="159" viewBox="0 0 194 159" fill="none" xmlns="http://www.w3.org/2000/svg">
<g filter="url(#filter0_d)">
<path fill-rule="evenodd" clip-rule="evenodd" d="M108.53 105.53C106.71 113.25 99.78 119 91.5 119C83.14 119 76.14 113.13 74.41 105.29C70.81 107.03 66.77 108 62.5 108C47.31 108 35 95.69 35 80.5C35 76.94 35.67 73.55 36.9 70.43C32.64 66.25 30 60.44 30 54C30 41.3 40.3 31 53 31C58.94 31 64.35 33.25 68.43 36.94C71.45 34.48 75.3 33 79.5 33C84.69 33 89.35 35.26 92.55 38.84C96.44 31.22 104.36 26 113.5 26C124.82 26 134.27 34 136.5 44.66C146.55 47.13 154 56.19 154 67C154 78.35 145.79 87.77 134.98 89.66C134.99 89.94 135 90.22 135 90.5C135 100.17 127.17 108 117.5 108C114.22 108 111.16 107.1 108.53 105.53ZM90 79.99C90.73 79.97 91.46 79.91 92.17 79.8C92.8 81.43 93.66 82.94 94.73 84.3C93.68 84.1 92.6 84 91.5 84C90.92 84 90.34 84.03 89.77 84.08C89.92 82.91 90 81.71 90 80.5C90 80.33 90 80.16 90 79.99Z" fill="white"/>
<path d="M154.16 108.7C154.95 112.76 152.29 116.7 148.23 117.49C144.16 118.29 140.22 115.63 139.43 111.57C138.64 107.5 141.3 103.56 145.36 102.77C149.43 101.98 153.37 104.63 154.16 108.7Z" fill="white"/>
<path d="M160.75 124.23C162.64 123.86 163.88 122.02 163.51 120.12C163.14 118.22 161.31 116.99 159.41 117.35C157.51 117.72 156.27 119.56 156.64 121.46C157.01 123.36 158.85 124.6 160.75 124.23Z" fill="white"/>
</g>
<path d="M77.94 77.19C77.94 77.19 68.44 52.67 76.14 47.07C83.85 41.48 88.42 59.31 96.26 64.35C100.9 67.33 103.27 69.66 103.27 69.66L77.94 77.19Z" fill="#FDCD09"/>
<path d="M58.81 73.96L59.86 79.64C59.86 80.15 59.44 80.57 58.93 80.57C58.42 80.56 58 80.14 58 79.63L58.42 73.95C58.42 73.45 58.81 73.45 58.81 73.96Z" fill="#B3B3B3"/>
<path d="M58.42 72.88L58 67.21C58 66.7 58.42 66.28 58.93 66.28C59.44 66.28 59.86 66.7 59.86 67.21L58.81 72.88C58.81 73.39 58.42 73.39 58.42 72.88Z" fill="#B3B3B3"/>
<path d="M64.57 73.42C64.57 74.68 63.41 75.71 61.98 75.71C60.61 75.71 59.49 74.77 59.4 73.58H58.72V73.25H59.4C59.5 72.07 60.62 71.13 61.98 71.13C63.41 71.13 64.57 72.15 64.57 73.42Z" fill="#B3B3B3"/>
<path d="M58.77 73.05C58.98 73.19 59.02 73.47 58.88 73.68C58.74 73.88 58.46 73.94 58.25 73.79C58.05 73.65 58 73.36 58.14 73.16C58.28 72.95 58.57 72.91 58.77 73.05Z" fill="#FDCD09"/>
<path d="M119.62 63.37C118.94 64.51 118.92 65.93 119.07 67.05C125.03 67.8 120.54 69.76 117.45 70.83C115.75 72.4 100.24 86.07 77.61 87.3C77.11 87.34 76.61 87.37 76.1 87.37L76.1 87.37C75.63 87.38 75.23 87.37 74.88 87.33C66.76 86.77 60.36 80.76 60.36 73.42C60.36 66.4 66.2 60.6 73.81 59.62C74.04 59.57 74.3 59.52 74.58 59.48C89.89 57.11 107.73 63.34 113.95 65.79C115.11 63.33 116.71 60.68 118.48 60C121.96 58.67 120.98 61.08 119.62 63.37Z" fill="black"/>
<path d="M112.97 69.14C112.97 69.14 112.44 75.59 114.64 76.37C116.85 77.15 116.68 72.63 118.18 70.89C119.07 69.86 119.55 69.02 119.55 69.02L112.97 69.14Z" fill="#B3B3B3"/>
<path d="M84.64 64.74C83.06 63.93 81.54 64.74 81.54 64.74C80.03 65.48 79.07 66.93 79.07 68.73C79.07 69.61 79.32 70.43 79.76 71.13H86.68C87.19 69.96 87.58 66.25 84.64 64.74Z" fill="#A3D3CE"/>
<path d="M93.75 64.74C92.18 63.93 90.65 64.74 90.65 64.74C89.15 65.48 88.19 66.93 88.19 68.73C88.19 69.61 88.44 70.43 88.87 71.13H95.8C96.3 69.96 96.7 66.25 93.75 64.74Z" fill="#A3D3CE"/>
<path d="M102.87 64.74C101.29 63.93 99.77 64.74 99.77 64.74C98.26 65.48 97.3 66.93 97.3 68.73C97.3 69.61 97.55 70.43 97.99 71.13H104.91C105.42 69.96 105.8 66.25 102.87 64.74Z" fill="#A3D3CE"/>
<path d="M72.65 63.46C70.85 62.43 67.66 63.46 67.66 63.46L67.62 63.47C64.29 65.02 62 68.25 62 71.99C62 73.83 62.56 75.54 63.52 77C67.42 76.78 75.25 76.01 75.84 73.45C76.62 70.02 74.45 64.48 72.65 63.46Z" fill="#A3D3CE"/>
<path d="M77.61 76.31C77.61 76.31 83.15 102.98 92.66 103.49C102.17 103.98 96.29 86.55 100.14 78.05C100.41 77.44 100.66 76.87 100.88 76.31H77.61Z" fill="#FDCD09"/>
<defs>
<filter id="filter0_d" x="0" y="0" width="193.58" height="158.29" filterUnits="userSpaceOnUse" color-interpolation-filters="sRGB">
<feFlood flood-opacity="0" result="BackgroundImageFix"/>
<feColorMatrix in="SourceAlpha" type="matrix" values="0 0 0 0 0 0 0 0 0 0 0 0 0 0 0 0 0 0 127 0"/>
<feOffset dy="4"/>
<feGaussianBlur stdDeviation="15"/>
<feColorMatrix type="matrix" values="0 0 0 0 0 0 0 0 0 0 0 0 0 0 0 0 0 0 0.2 0"/>
<feBlend mode="normal" in2="BackgroundImageFix" result="effect1_dropShadow"/>
<feBlend mode="normal" in="SourceGraphic" in2="effect1_dropShadow" result="shape"/>
</filter>
</defs>
</svg>
