<svg width="203" height="160" viewBox="0 0 203 160" fill="none" xmlns="http://www.w3.org/2000/svg">
<g filter="url(#filter0_d)">
<path d="M125.33 109.42C124.11 109.42 122.91 109.33 121.73 109.16C118.29 113.91 112.69 117 106.37 117C99.82 117 94.05 113.68 90.64 108.62C86.45 111.84 81.2 113.75 75.5 113.75C63.9 113.75 54.15 105.82 51.37 95.08C39.29 93.36 30 82.97 30 70.42C30 56.66 41.16 45.5 54.92 45.5C57.95 45.5 60.85 46.04 63.54 47.03C66.9 34.9 78.01 26 91.21 26C100.95 26 109.56 30.85 114.75 38.27C117.87 36 121.72 34.67 125.87 34.67C134.76 34.67 142.22 40.78 144.27 49.03C145.34 48.85 146.43 48.75 147.54 48.75C158.01 48.75 166.5 57.24 166.5 67.71C166.5 77.29 159.4 85.21 150.17 86.49C149.16 99.32 138.43 109.42 125.33 109.42Z" fill="white"/>
<path d="M163.25 109.93C163.9 114.03 161.1 117.86 157.01 118.51C152.91 119.15 149.08 116.35 148.44 112.26C147.79 108.16 150.59 104.33 154.68 103.69C158.78 103.04 162.61 105.84 163.25 109.93Z" fill="white"/>
<path d="M169.27 125.69C171.18 125.39 172.48 123.6 172.18 121.69C171.88 119.78 170.09 118.48 168.18 118.78C166.27 119.08 164.97 120.87 165.27 122.78C165.57 124.69 167.36 125.99 169.27 125.69Z" fill="white"/>
</g>
<path d="M76.66 95.02C76.66 95.02 76.66 95.02 76.66 95.02C72.19 95.02 67.99 92.82 65.43 89.14C62.82 85.38 62.28 80.66 63.95 76.19C65.26 72.7 68.01 69.95 71.5 68.64C73.2 68.01 74.93 67.69 76.66 67.69C81.14 67.69 85.34 69.89 87.89 73.57C90.5 77.33 91.04 82.05 89.37 86.52C88.07 90.01 85.32 92.76 81.83 94.07C80.13 94.7 78.39 95.02 76.66 95.02ZM76.66 71C75.33 71 73.98 71.25 72.66 71.75C70.07 72.71 68.02 74.76 67.06 77.35C65.77 80.79 66.17 84.4 68.15 87.25C70.09 90.04 73.27 91.71 76.66 91.71C78 91.71 79.34 91.45 80.67 90.96C83.26 89.99 85.3 87.95 86.27 85.36C87.55 81.92 87.15 78.31 85.17 75.46C83.24 72.67 80.05 71 76.66 71Z" fill="black"/>
<path d="M115.87 95.02C111.4 95.02 107.2 92.82 104.64 89.14C102.03 85.38 101.49 80.67 103.16 76.19C104.46 72.7 107.22 69.95 110.71 68.64C112.41 68.01 114.14 67.69 115.87 67.69C120.35 67.69 124.55 69.89 127.1 73.57C129.71 77.33 130.25 82.05 128.58 86.52C127.28 90.01 124.53 92.76 121.03 94.07C119.34 94.7 117.6 95.02 115.87 95.02ZM115.87 71C114.54 71 113.19 71.25 111.87 71.75C109.28 72.71 107.23 74.76 106.27 77.35C104.98 80.79 105.38 84.4 107.36 87.25C109.3 90.04 112.48 91.71 115.87 91.71C117.2 91.71 118.55 91.45 119.88 90.96C122.47 89.99 124.51 87.95 125.48 85.36C126.76 81.92 126.36 78.31 124.38 75.46C122.44 72.67 119.26 71 115.87 71Z" fill="black"/>
<path d="M117.14 80.57L105.65 68.26L108.72 61.93L106.63 60.93L98.24 78.27L83.42 62.8L85.48 55.92C85.51 55.82 85.52 55.73 85.52 55.63L92 57.8C92.12 57.84 92.24 57.86 92.36 57.86C92.85 57.86 93.3 57.56 93.46 57.07C93.66 56.47 93.34 55.81 92.73 55.61L79.17 51.06C78.57 50.86 77.91 51.18 77.71 51.79C77.51 52.4 77.83 53.05 78.44 53.25L83.43 54.93C83.36 55.03 83.3 55.13 83.26 55.25L75.56 81.03C75.37 81.64 75.72 82.28 76.33 82.47C76.45 82.5 76.56 82.51 76.67 82.51C77.16 82.51 77.62 82.19 77.77 81.69L82.66 65.35L97.72 81.07C97.94 81.3 98.24 81.43 98.55 81.43C98.61 81.43 98.67 81.43 98.73 81.42C99.11 81.36 99.43 81.12 99.59 80.78L104.57 70.49L115.45 82.15C115.68 82.39 115.98 82.51 116.29 82.51C116.58 82.51 116.86 82.41 117.08 82.2C117.55 81.76 117.57 81.03 117.14 80.57Z" fill="#FDCD09"/>
<path d="M112.54 62.47H101.51V62.44C101.51 61.02 102.66 59.87 104.08 59.87H112.3C112.63 59.87 112.88 60.16 112.83 60.48L112.54 62.47Z" fill="#515151"/>
<defs>
<filter id="filter0_d" x="0" y="0" width="202.23" height="159.74" filterUnits="userSpaceOnUse" color-interpolation-filters="sRGB">
<feFlood flood-opacity="0" result="BackgroundImageFix"/>
<feColorMatrix in="SourceAlpha" type="matrix" values="0 0 0 0 0 0 0 0 0 0 0 0 0 0 0 0 0 0 127 0"/>
<feOffset dy="4"/>
<feGaussianBlur stdDeviation="15"/>
<feColorMatrix type="matrix" values="0 0 0 0 0 0 0 0 0 0 0 0 0 0 0 0 0 0 0.2 0"/>
<feBlend mode="normal" in2="BackgroundImageFix" result="effect1_dropShadow"/>
<feBlend mode="normal" in="SourceGraphic" in2="effect1_dropShadow" result="shape"/>
</filter>
</defs>
</svg>
