<svg width="194" height="158" viewBox="0 0 194 158" fill="none" xmlns="http://www.w3.org/2000/svg">
<g filter="url(#filter0_d)">
<path d="M40.22 72.12C34.06 68 30 60.97 30 53C30 40.3 40.3 30 53 30C58.61 30 63.75 32.01 67.74 35.34C72.03 29.67 78.84 26 86.5 26C93.94 26 100.58 29.46 104.88 34.86C108.18 33.04 111.97 32 116 32C128.7 32 139 42.3 139 55C139 55.29 138.99 55.59 138.98 55.88C145.96 58.18 151 64.75 151 72.5C151 80.99 144.96 88.06 136.94 89.66C136.98 90.27 137 90.88 137 91.5C137 106.69 124.69 119 109.5 119C100.81 119 93.06 114.97 88.02 108.67C84.94 111.37 80.91 113 76.5 113C68.71 113 62.12 107.92 59.84 100.89C57.36 102.23 54.52 103 51.5 103C41.84 103 34 95.17 34 85.5C34 80.13 36.41 75.33 40.22 72.12Z" fill="white"/>
<path d="M154.16 107.7C154.95 111.76 152.29 115.7 148.23 116.49C144.16 117.29 140.22 114.63 139.43 110.57C138.64 106.5 141.3 102.56 145.36 101.77C149.43 100.98 153.37 103.63 154.16 107.7Z" fill="white"/>
<path d="M160.75 123.23C162.64 122.86 163.88 121.02 163.51 119.12C163.14 117.22 161.31 115.99 159.41 116.35C157.51 116.72 156.27 118.56 156.64 120.46C157.01 122.36 158.85 123.6 160.75 123.23Z" fill="white"/>
</g>
<path d="M71.52 43C71.52 43 70.57 44.99 72.03 47.47L74.13 47.22C74.13 47.23 74.63 44.17 71.52 43Z" fill="#9B6224"/>
<path d="M69.64 49.45L67.86 47.03C67.86 47.03 66.82 46.19 68.27 45.24C69.71 44.28 72.64 42.93 76.43 44.82C80.24 46.71 84.32 50.53 86.99 52.91C89.66 55.31 87.44 55.74 86.39 56.31C85.33 56.87 82.14 52.57 78.9 50.84C75.67 49.12 69.64 49.45 69.64 49.45Z" fill="black"/>
<path d="M106.63 77.71C110.84 74.83 112.16 62.15 104.12 60.61C98.78 59.58 92.66 61.01 89.95 58.45C74.46 43.75 74.08 47.71 74.08 47.71C74.08 47.71 74 55.45 74.2 58.34C75.23 72.91 79.11 76.99 83.64 77.37C83.64 77.37 101.46 81.24 106.63 77.71Z" fill="#9B6224"/>
<path d="M102.12 60.33C97.32 59.87 92.32 60.7 89.94 58.45C89.65 58.17 89.36 57.89 89.07 57.62C89.07 57.63 84.27 67.04 91.12 69.14C97.99 71.26 102.58 69.4 102.12 60.33Z" fill="#A3D3CE"/>
<path d="M113.35 69.35C113.03 66.17 109.01 59.35 105.08 62.77L104.7 63.23C104.7 63.23 102.92 65.09 105.58 67.2C108.25 69.32 110.63 71.18 110.95 73.81C111.28 76.44 111.36 79.93 112.96 80.01C114.56 80.09 113.67 72.54 113.35 69.35Z" fill="#FDCD09"/>
<path d="M115.76 79.84C115.46 79.69 115.15 79.61 114.84 79.61C113.64 79.61 112.96 80.73 112.74 81.39C112.71 81.5 108.85 92.43 92.94 92.43C86.01 92.43 80.38 90.53 76.7 86.94C73.91 84.23 73.16 81.47 73.16 81.45L73.15 81.4C72.97 80.83 72.42 80.25 71.59 80.25C71.14 80.25 70.67 80.42 70.19 80.77C68.95 81.67 69.16 83.23 69.48 84.04C69.61 84.39 70.79 87.48 74.15 90.57C77.33 93.5 83.18 97 92.94 97C102.57 97 108.42 93.5 111.64 90.58C114.98 87.52 116.23 84.47 116.39 84.08C116.76 83.24 117.84 80.85 115.76 79.84Z" fill="black"/>
<path d="M76 88.84L79.64 70.4C79.64 70.4 81.02 66.69 85.65 68.9C90.29 71.12 89.22 74.01 85.33 81.32C81.44 88.63 79.99 92.34 77.74 91.8C75.43 91.22 75.98 89.29 76 88.84Z" fill="#FDCD09"/>
<path d="M110.95 88.84L108.12 71.35C108.12 71.35 106.74 67.64 102.1 69.85C97.47 72.07 98.54 74.96 102.42 82.27C106.3 89.58 106.96 92.34 109.21 91.79C111.53 91.22 110.98 89.29 110.95 88.84Z" fill="#FDCD09"/>
<path d="M78.05 48.51C76.24 46.8 74.42 47.04 73.58 47.07C73.42 47.09 73.25 47.11 73.07 47.13C72.69 46.1 71.78 44.24 69.9 43.34C69.9 43.34 68.98 46.35 70.8 48.01C70.56 48.2 70.35 48.4 70.19 48.66C68.53 51.12 65.79 54.73 65.02 56.55C64.25 58.37 63.28 60.96 64.81 62.6C69.15 67.22 77.92 59.77 80.17 56.87C80.17 56.87 83.46 53.61 78.05 48.51Z" fill="#FDCD09"/>
<path d="M78.61 90.51C78.61 90.94 78.26 91.3 77.82 91.3C77.38 91.3 77.02 90.94 77.02 90.51C77.02 90.07 77.38 89.72 77.82 89.72C78.26 89.72 78.61 90.07 78.61 90.51Z" fill="black"/>
<path d="M84.44 73.71C84.44 74.15 84.08 74.5 83.64 74.5C83.21 74.5 82.85 74.15 82.85 73.71C82.85 73.28 83.21 72.92 83.64 72.92C84.08 72.92 84.44 73.27 84.44 73.71Z" fill="black"/>
<path d="M72.52 51.91C72.52 52.35 72.16 52.7 71.72 52.7C71.28 52.7 70.92 52.35 70.92 51.91C70.92 51.48 71.28 51.12 71.72 51.12C72.17 51.12 72.52 51.48 72.52 51.91Z" fill="black"/>
<path d="M108.33 89.72C108.33 90.15 108.69 90.51 109.13 90.51C109.57 90.51 109.93 90.15 109.93 89.72C109.93 89.28 109.57 88.92 109.13 88.92C108.69 88.92 108.33 89.28 108.33 89.72Z" fill="black"/>
<path d="M103.32 74.66C103.32 75.1 103.68 75.45 104.12 75.45C104.56 75.45 104.92 75.1 104.92 74.66C104.92 74.23 104.56 73.87 104.12 73.87C103.67 73.87 103.32 74.23 103.32 74.66Z" fill="black"/>
<path d="M105.68 64.86C105.68 65.3 106.04 65.65 106.48 65.65C106.92 65.65 107.27 65.3 107.27 64.86C107.27 64.43 106.92 64.07 106.48 64.07C106.04 64.08 105.68 64.43 105.68 64.86Z" fill="black"/>
<path d="M89.08 60.12C89.08 60.55 89.44 60.91 89.87 60.91C90.31 60.91 90.67 60.55 90.67 60.12C90.67 59.68 90.31 59.33 89.87 59.33C89.44 59.33 89.08 59.68 89.08 60.12Z" fill="#9B6224"/>
<path d="M99.84 61.7C99.84 62.14 100.2 62.49 100.64 62.49C101.08 62.49 101.44 62.14 101.44 61.7C101.44 61.27 101.08 60.91 100.64 60.91C100.2 60.91 99.84 61.27 99.84 61.7Z" fill="black"/>
<path d="M86.96 55.65L87.79 56.41C88.97 57.72 90.76 58.65 90.93 59.1C90.81 59.24 90.04 59.85 86.02 60.16C81.72 60.5 78.52 60.26 76.21 59.84C76.14 59.94 76.07 60.04 76.01 60.14C75.78 60.49 75.56 60.85 75.32 61.2C77.06 61.55 79.28 61.82 82.09 61.82C83.33 61.82 84.67 61.77 86.13 61.66C90.36 61.33 92.25 60.62 92.43 59.31C92.67 57.59 88.35 56.17 86.96 55.65Z" fill="#5E3C0B"/>
<path d="M90.91 59.13C90.72 59.3 89.85 59.87 86.02 60.17C78.68 60.74 74.53 59.64 72.57 58.82C80 56.05 79.94 50.5 79.94 50.5C79.94 50.5 79.4 49.78 79.36 49.74L78.72 49.19C78.73 49.24 79 55.4 70.81 57.82C68.72 56.26 66.36 55.44 65.71 55.24C65.57 55.47 65.44 55.7 65.32 55.91L65.11 56.62C65.16 56.63 67.87 57.45 70.06 59.14L70.17 59.23C70.18 59.24 70.21 59.27 70.26 59.3C71.36 60.2 72.39 61.48 72.74 62.84L73.38 62.5C73.61 62.38 73.83 62.25 74.06 62.11C73.92 61.62 73.73 61.17 73.48 60.74C75.37 61.32 78.16 61.83 82.09 61.83C83.33 61.83 84.67 61.78 86.13 61.67C89.97 61.36 91.87 60.76 92.33 59.67C91.81 59.53 91.34 59.35 90.91 59.13Z" fill="black"/>
<defs>
<filter id="filter0_d" x="0" y="0" width="193.58" height="157.29" filterUnits="userSpaceOnUse" color-interpolation-filters="sRGB">
<feFlood flood-opacity="0" result="BackgroundImageFix"/>
<feColorMatrix in="SourceAlpha" type="matrix" values="0 0 0 0 0 0 0 0 0 0 0 0 0 0 0 0 0 0 127 0"/>
<feOffset dy="4"/>
<feGaussianBlur stdDeviation="15"/>
<feColorMatrix type="matrix" values="0 0 0 0 0 0 0 0 0 0 0 0 0 0 0 0 0 0 0.2 0"/>
<feBlend mode="normal" in2="BackgroundImageFix" result="effect1_dropShadow"/>
<feBlend mode="normal" in="SourceGraphic" in2="effect1_dropShadow" result="shape"/>
</filter>
</defs>
</svg>
