<svg width="61" height="10" viewBox="0 0 61 10" fill="none" xmlns="http://www.w3.org/2000/svg">
<path d="M7.79 8.1C7.79 7.8 7.64 7.85 7.54 7.85H6.93V1.93H7.54C7.64 1.93 7.79 1.98 7.79 1.68V1.03C7.79 0.73 7.64 0.78 7.54 0.78H4.73C4.64 0.78 4.48 0.73 4.48 1.03V1.68C4.48 1.98 4.64 1.93 4.73 1.93H5.31V4.1H3.02V1.93H3.59C3.69 1.93 3.85 1.98 3.85 1.68V1.03C3.85 0.73 3.69 0.78 3.59 0.78H0.79C0.69 0.78 0.53 0.73 0.53 1.03V1.68C0.53 1.98 0.69 1.93 0.79 1.93H1.4V7.85H0.79C0.69 7.85 0.53 7.8 0.53 8.1V8.75C0.53 9.05 0.69 9 0.79 9H3.59C3.69 9 3.85 9.05 3.85 8.75V8.1C3.85 7.8 3.69 7.85 3.59 7.85H3.02V5.4H5.31V7.85H4.73C4.64 7.85 4.48 7.8 4.48 8.1V8.75C4.48 9.05 4.64 9 4.73 9H7.54C7.64 9 7.79 9.05 7.79 8.75V8.1ZM13.54 6.44C13.78 6.44 13.81 6.38 13.81 6.06C13.81 3.28 12.35 2.87 11.41 2.87C10.5 2.87 9.96 3.25 9.58 3.7C9.01 4.34 8.79 5.14 8.79 6.19C8.79 7.37 9.16 8.09 9.57 8.51C10.06 9.01 10.73 9.2 11.51 9.2C12.19 9.2 12.99 9.01 13.43 8.72C13.57 8.63 13.62 8.56 13.62 8.48C13.62 8.44 13.6 8.39 13.59 8.35L13.29 7.64C13.26 7.58 13.23 7.55 13.15 7.55C13.11 7.55 13.05 7.57 12.96 7.61C12.91 7.63 12.88 7.64 12.83 7.67C12.6 7.78 12.18 7.94 11.63 7.94C10.63 7.94 10.31 7.32 10.31 6.44H13.54ZM10.31 5.33C10.35 4.92 10.41 4.58 10.62 4.31C10.75 4.15 10.97 3.98 11.32 3.98C11.59 3.98 12.01 4.1 12.15 4.72C12.18 4.87 12.19 5.04 12.19 5.21C12.19 5.24 12.19 5.29 12.19 5.33H10.31ZM18.37 7.88H17.75C17.57 7.88 17.59 7.99 17.59 8.05V8.83C17.59 9.01 17.69 9 17.75 9H20.36C20.55 9 20.53 8.92 20.53 8.83V8.05C20.53 7.97 20.55 7.88 20.36 7.88H19.89V4.31H21.52V8.83C21.52 9.01 21.63 9 21.69 9H23.66C23.85 9 23.83 8.92 23.83 8.83V8.05C23.83 7.97 23.85 7.88 23.66 7.88H23.05V4.19H23.66C23.85 4.19 23.83 4.1 23.83 4.02V3.24C23.83 3.16 23.85 3.07 23.66 3.07H17.75C17.57 3.07 17.59 3.18 17.59 3.24V4.02C17.59 4.2 17.69 4.19 17.75 4.19H18.37V7.88ZM28.31 7.88H27.84C27.66 7.88 27.67 7.99 27.67 8.05V8.83C27.67 9.01 27.78 9 27.84 9H30.44C30.64 9 30.61 8.92 30.61 8.83V8.05C30.61 7.97 30.64 7.88 30.44 7.88H29.83V3.24C29.83 3.16 29.86 3.07 29.66 3.07H25.33C25.13 3.07 25.15 3.18 25.15 3.24V4.02C25.15 4.2 25.26 4.19 25.32 4.19H25.93L25.91 5.12C25.9 5.7 25.8 6.53 25.69 6.97C25.62 7.25 25.44 7.85 24.83 7.92L24.72 7.93C24.62 7.94 24.52 7.92 24.54 8.14L24.64 9.02C24.66 9.19 24.82 9.2 24.9 9.2C25.14 9.2 25.36 9.16 25.52 9.12C26.12 8.98 26.84 8.59 27.12 6.8C27.22 6.2 27.29 5.03 27.29 4.43V4.31H28.31V7.88ZM36.73 8.05C36.73 7.99 36.74 7.88 36.56 7.88H36.05L36.03 7.84C35.98 7.6 35.93 7.49 35.93 6.88V4.8C35.93 4.04 35.71 2.87 33.99 2.87C32.99 2.87 32.28 3.1 32.03 3.19C31.66 3.32 31.75 3.48 31.79 3.58L32.03 4.31C32.04 4.36 32.06 4.43 32.15 4.43C32.24 4.43 32.31 4.38 32.52 4.31C32.75 4.22 33.23 4.07 33.73 4.07C34.5 4.07 34.49 4.63 34.49 4.96V5.33H34.32C32.52 5.33 31.36 5.84 31.36 7.36C31.36 8.68 32.27 9.2 33.16 9.2C33.91 9.2 34.33 8.86 34.66 8.53L34.7 8.48L34.72 8.56C34.75 8.81 34.85 9 35.06 9H36.56C36.76 9 36.73 8.92 36.73 8.83V8.05ZM34.49 7.63C34.21 7.9 33.95 8.09 33.59 8.09C33.12 8.09 32.8 7.75 32.8 7.27C32.8 6.89 32.99 6.66 33.23 6.52C33.59 6.31 34.07 6.31 34.42 6.31H34.49V7.63ZM38.63 4.27V7.88H37.86C37.68 7.88 37.7 7.99 37.7 8.05V8.83C37.7 9.01 37.8 9 37.86 9H40.92C41.12 9 41.09 8.92 41.09 8.83V8.05C41.09 7.97 41.12 7.88 40.92 7.88H40.16V4.27H40.8V5.2C40.8 5.33 40.82 5.36 40.97 5.36H41.7C41.84 5.36 41.87 5.35 41.87 5.2V3.24C41.87 3.08 41.84 3.07 41.7 3.07H37.11C36.98 3.07 36.94 3.08 36.94 3.24V5.2C36.94 5.33 36.95 5.36 37.11 5.36H37.82C37.95 5.36 37.98 5.35 37.98 5.2V4.27H38.63ZM48.17 7.88V3.24C48.17 3.18 48.19 3.07 48.01 3.07H46.9C46.75 3.07 46.73 3.13 46.67 3.24L45.23 5.86C45.17 5.96 45.1 6.13 44.84 6.77H44.79C44.81 6.34 44.84 5.76 44.84 5.29V3.24C44.84 3.16 44.86 3.07 44.67 3.07H42.7C42.64 3.07 42.53 3.06 42.53 3.24V4.02C42.53 4.2 42.64 4.19 42.7 4.19H43.31V8.83C43.31 9.01 43.42 9 43.48 9H44.59C44.74 9 44.75 8.94 44.81 8.83L46.25 6.2C46.33 6.07 46.39 5.93 46.65 5.3H46.7C46.67 5.74 46.65 6.31 46.65 6.78V8.83C46.65 9.01 46.76 9 46.82 9H48.79C48.98 9 48.95 8.92 48.95 8.83V8.05C48.95 7.97 48.98 7.88 48.79 7.88H48.17ZM51.26 4.27V7.88H50.5C50.32 7.88 50.33 7.99 50.33 8.05V8.83C50.33 9.01 50.44 9 50.5 9H53.56C53.75 9 53.72 8.92 53.72 8.83V8.05C53.72 7.97 53.75 7.88 53.56 7.88H52.79V4.27H53.44V5.2C53.44 5.33 53.45 5.36 53.6 5.36H54.34C54.47 5.36 54.5 5.35 54.5 5.2V3.24C54.5 3.08 54.47 3.07 54.34 3.07H49.74C49.61 3.07 49.57 3.08 49.57 3.24V5.2C49.57 5.33 49.58 5.36 49.74 5.36H50.45C50.58 5.36 50.62 5.35 50.62 5.2V4.27H51.26ZM56.04 7.88H55.43C55.24 7.88 55.26 7.97 55.26 8.05V8.83C55.26 8.92 55.24 9 55.43 9H58.07C58.71 9 59.51 8.98 60.07 8.52C60.64 8.08 60.71 7.45 60.71 7.02C60.71 6.52 60.59 6.01 60.12 5.62C59.58 5.16 58.91 5.14 58.24 5.14H57.57V3.24C57.57 3.18 57.58 3.07 57.4 3.07H55.43C55.25 3.07 55.26 3.18 55.26 3.24V4.02C55.26 4.2 55.37 4.19 55.43 4.19H56.04V7.88ZM57.57 6.34H58.3C58.55 6.34 59.19 6.35 59.19 7.07C59.19 7.79 58.56 7.8 58.32 7.8H57.57V6.34Z" fill="black"/>
</svg>
