<svg width="50" height="60" viewBox="0 0 50 60" fill="none" xmlns="http://www.w3.org/2000/svg">
<path d="M49.17 9.95V9.84C49.17 9.04 48.36 8.39 47.36 8.39H47.32C46.45 8.39 45.72 8.88 45.55 9.54C45.37 8.88 44.64 8.39 43.77 8.39H43.73C42.86 8.39 42.13 8.88 41.96 9.54C41.79 8.88 41.06 8.39 40.19 8.39H40.15C39.4 8.39 38.76 8.75 38.48 9.27V2.23C38.48 1.43 37.67 0.78 36.67 0.78H36.63C35.63 0.78 34.82 1.43 34.82 2.23V14.39L32.11 15.59L35.18 20.35C35.79 21.54 37.24 22.37 38.93 22.37H39.33V30.58H45.7V22.33C47.66 22.1 49.17 20.75 49.17 19.11V9.95H49.17Z" fill="#FFBE87"/>
<path d="M24.67 59.9C9.67 59.9 0.35 50.78 0.35 36.12H8.43C8.43 46.24 14.2 51.81 24.67 51.81C35.92 51.81 38.15 41.41 38.48 35.2C38.73 30.58 38.68 26.49 38.67 24.74L38.66 24.34L46.74 24.27L46.75 24.66C46.77 26.48 46.81 30.75 46.55 35.63C46.32 39.96 45.3 46.2 41.72 51.38C37.87 56.95 31.97 59.9 24.67 59.9Z" fill="#090909"/>
</svg>
