<svg width="68" height="71" viewBox="0 0 68 71" fill="none" xmlns="http://www.w3.org/2000/svg">
<path d="M62.79 0.74C62.79 0.74 62.78 0.81 62.76 0.94C62.04 4.96 58.52 7.86 54.44 7.86H21.04C9.47 7.86 0.1 16.55 0.1 27.28V48.97C0.1 60.71 10.36 70.22 23.02 70.22H44.28C50.92 70.22 56.3 65.23 56.3 59.07V24.94L57.24 20.09C57.39 20.01 57.53 19.94 57.68 19.86C70.62 12.51 62.79 0.74 62.79 0.74Z" fill="black"/>
<path d="M60.73 33.28V26.29C60.73 23.71 59.77 21.36 58.18 19.56C58.02 19.66 57.85 19.76 57.68 19.86C49.96 24.24 38.83 20.56 34.47 18.66V32.58L29.19 45.54H23.86V43.26C23.86 40.99 22.02 39.15 19.75 39.15H18.06C17.87 39.15 17.68 39.16 17.49 39.19C17.48 39.19 17.47 39.19 17.45 39.19C17.28 39.22 17.1 39.25 16.92 39.29C14.8 39.8 13.22 41.71 13.22 43.99V47.1C13.22 50.93 15.68 54.19 19.1 55.39V60.17C19.1 65.8 23.67 70.37 29.3 70.37H50.52C56.16 70.37 60.73 65.8 60.73 60.17V50.23H67.02L60.73 33.28Z" fill="#FFDEBD"/>
<path d="M53.28 39.36C54.17 38.46 54.18 37.02 53.3 36.14C52.41 35.25 50.97 35.26 50.08 36.15C49.19 37.05 49.18 38.49 50.06 39.37C50.95 40.26 52.39 40.25 53.28 39.36Z" fill="#242A36"/>
<path d="M45.36 54C47.16 56.42 49.62 57.87 52.6 58.35C54.68 58.7 58.14 58.67 59.65 56.86C60.09 56.33 59.34 55.56 58.89 56.09C57.49 57.77 54.25 57.54 52.34 57.23C49.9 56.83 47.76 55.42 46.29 53.45C45.88 52.9 44.95 53.44 45.36 54Z" fill="#AF5946"/>
<path d="M43.08 34.42L42.77 34.1L48.13 30.67L53.24 28.71L55.71 30.32L43.08 34.42Z" fill="#612727"/>
<path d="M51.68 37.76C51.63 37.46 51.36 37.26 51.07 37.31C50.78 37.36 50.58 37.63 50.62 37.92C50.67 38.22 50.94 38.42 51.23 38.37C51.53 38.32 51.73 38.05 51.68 37.76Z" fill="white"/>
</svg>
