<svg width="59" height="172" viewBox="0 0 59 172" fill="none" xmlns="http://www.w3.org/2000/svg">
<path d="M58.16 172H37.64V165.26H44.27L46.54 167.75L58.16 171.04V172Z" fill="#242A36"/>
<path d="M38.21 172H17.7V165.26H24.33L26.6 167.75L38.21 171.04V172Z" fill="#242A36"/>
<path d="M45.1 81.47H41.48H34.84H26.45H22.41H16.2L20.42 127.44L16.2 166.33H26.45L28.09 127.44L26.92 94.52H36.04L39.07 127.44L34.84 166.33H45.1L46.74 127.44L45.1 81.47Z" fill="#3159AD"/>
<path d="M51.84 88.68H8.53V33.28C8.53 21.44 18.13 11.84 29.97 11.84H30.4C42.24 11.84 51.83 21.44 51.83 33.28V88.68H51.84Z" fill="#050505"/>
<path d="M32.18 15.6L40.52 19.37L38.29 13.34C35.85 12.37 33.19 11.84 30.4 11.84H29.97C26.52 11.84 23.26 12.66 20.37 14.1C22.92 16.51 27.85 21.06 27.85 21.06L32.18 15.6Z" fill="#FED21F"/>
<path d="M2.75 95.17C2.52 65.69 4.03 44.43 7.25 31.98C9.3 24.07 11.95 20.12 15.61 19.55C15.61 19.55 18.83 26.29 18.98 26.15C18.66 26.45 11.2 34.12 11.68 95.12L2.75 95.17Z" fill="#090909"/>
<path d="M8.59 95.13H4.43V100.26H4.41C3.43 100.26 2.64 101.05 2.64 102.03V102.34C1.22 102.59 0.15 103.65 0.15 104.92V104.94H2.64V104.96H9.6C11.51 104.96 13.05 103.41 13.05 101.5V100.26V99.6C13.05 97.13 11.05 95.13 8.59 95.13Z" fill="#FFBE87"/>
<path d="M26.06 0.64C26.06 3.09 26.06 12.38 26.06 12.39C26.06 13.41 28.05 14.23 30.51 14.23C32.95 14.23 34.94 13.42 34.95 12.4H34.96V0.64H26.06Z" fill="#FFDEBD"/>
</svg>
