<svg width="45" height="10" viewBox="0 0 45 10" fill="none" xmlns="http://www.w3.org/2000/svg">
<path d="M7.73 8.1C7.73 7.8 7.57 7.85 7.48 7.85H6.87V1.93H7.48C7.57 1.93 7.73 1.98 7.73 1.68V1.03C7.73 0.73 7.57 0.78 7.48 0.78H0.88C0.78 0.78 0.63 0.73 0.63 1.03V1.68C0.63 1.98 0.78 1.93 0.88 1.93H1.49V7.85H0.88C0.78 7.85 0.63 7.8 0.63 8.1V8.75C0.63 9.05 0.78 9 0.88 9H3.69C3.78 9 3.94 9.05 3.94 8.75V8.1C3.94 7.8 3.78 7.85 3.69 7.85H3.11V2.08H5.25V7.85H4.67C4.57 7.85 4.42 7.8 4.42 8.1V8.75C4.42 9.05 4.57 9 4.67 9H7.48C7.57 9 7.73 9.05 7.73 8.75V8.1ZM12.22 7.88H11.75C11.57 7.88 11.58 7.99 11.58 8.05V8.83C11.58 9.01 11.69 9 11.75 9H14.35C14.54 9 14.52 8.92 14.52 8.83V8.05C14.52 7.97 14.54 7.88 14.35 7.88H13.74V3.24C13.74 3.16 13.77 3.07 13.57 3.07H9.24C9.04 3.07 9.06 3.18 9.06 3.24V4.02C9.06 4.2 9.17 4.19 9.23 4.19H9.84L9.82 5.12C9.8 5.7 9.71 6.53 9.6 6.97C9.53 7.25 9.35 7.85 8.74 7.92L8.63 7.93C8.53 7.94 8.42 7.92 8.45 8.14L8.54 9.02C8.57 9.19 8.72 9.2 8.81 9.2C9.05 9.2 9.26 9.16 9.43 9.12C10.03 8.98 10.75 8.59 11.03 6.8C11.12 6.2 11.2 5.03 11.2 4.43V4.31H12.22V7.88ZM20.64 8.05C20.64 7.99 20.65 7.88 20.47 7.88H19.96L19.94 7.84C19.88 7.6 19.84 7.49 19.84 6.88V4.8C19.84 4.04 19.62 2.87 17.9 2.87C16.9 2.87 16.19 3.1 15.94 3.19C15.56 3.32 15.66 3.48 15.7 3.58L15.94 4.31C15.95 4.36 15.97 4.43 16.06 4.43C16.15 4.43 16.22 4.38 16.43 4.31C16.66 4.22 17.14 4.07 17.64 4.07C18.41 4.07 18.4 4.63 18.4 4.96V5.33H18.23C16.43 5.33 15.26 5.84 15.26 7.36C15.26 8.68 16.18 9.2 17.06 9.2C17.82 9.2 18.24 8.86 18.56 8.53L18.61 8.48L18.62 8.56C18.66 8.81 18.76 9 18.97 9H20.47C20.66 9 20.64 8.92 20.64 8.83V8.05ZM18.4 7.63C18.12 7.9 17.86 8.09 17.5 8.09C17.03 8.09 16.7 7.75 16.7 7.27C16.7 6.89 16.9 6.66 17.14 6.52C17.5 6.31 17.98 6.31 18.32 6.31H18.4V7.63ZM22.54 4.27V7.88H21.77C21.59 7.88 21.6 7.99 21.6 8.05V8.83C21.6 9.01 21.71 9 21.77 9H24.83C25.02 9 25 8.92 25 8.83V8.05C25 7.97 25.02 7.88 24.83 7.88H24.06V4.27H24.71V5.2C24.71 5.33 24.72 5.36 24.88 5.36H25.61C25.74 5.36 25.78 5.35 25.78 5.2V3.24C25.78 3.08 25.74 3.07 25.61 3.07H21.02C20.88 3.07 20.85 3.08 20.85 3.24V5.2C20.85 5.33 20.86 5.36 21.02 5.36H21.72C21.86 5.36 21.89 5.35 21.89 5.2V4.27H22.54ZM32.08 7.88V3.24C32.08 3.18 32.09 3.07 31.91 3.07H30.81C30.65 3.07 30.64 3.13 30.58 3.24L29.14 5.86C29.08 5.96 29.01 6.13 28.75 6.77H28.7C28.72 6.34 28.75 5.76 28.75 5.29V3.24C28.75 3.16 28.77 3.07 28.58 3.07H26.61C26.55 3.07 26.44 3.06 26.44 3.24V4.02C26.44 4.2 26.55 4.19 26.61 4.19H27.22V8.83C27.22 9.01 27.33 9 27.39 9H28.49C28.65 9 28.66 8.94 28.72 8.83L30.16 6.2C30.23 6.07 30.29 5.93 30.56 5.3H30.61C30.58 5.74 30.56 6.31 30.56 6.78V8.83C30.56 9.01 30.67 9 30.73 9H32.69C32.89 9 32.86 8.92 32.86 8.83V8.05C32.86 7.97 32.89 7.88 32.69 7.88H32.08ZM35.17 4.27V7.88H34.4C34.22 7.88 34.24 7.99 34.24 8.05V8.83C34.24 9.01 34.34 9 34.4 9H37.46C37.66 9 37.63 8.92 37.63 8.83V8.05C37.63 7.97 37.66 7.88 37.46 7.88H36.7V4.27H37.34V5.2C37.34 5.33 37.36 5.36 37.51 5.36H38.24C38.38 5.36 38.41 5.35 38.41 5.2V3.24C38.41 3.08 38.38 3.07 38.24 3.07H33.65C33.52 3.07 33.48 3.08 33.48 3.24V5.2C33.48 5.33 33.49 5.36 33.65 5.36H34.36C34.49 5.36 34.52 5.35 34.52 5.2V4.27H35.17ZM39.95 7.88H39.34C39.15 7.88 39.17 7.97 39.17 8.05V8.83C39.17 8.92 39.15 9 39.34 9H41.98C42.61 9 43.42 8.98 43.98 8.52C44.55 8.08 44.62 7.45 44.62 7.02C44.62 6.52 44.5 6.01 44.03 5.62C43.49 5.16 42.82 5.14 42.15 5.14H41.47V3.24C41.47 3.18 41.49 3.07 41.31 3.07H39.34C39.16 3.07 39.17 3.18 39.17 3.24V4.02C39.17 4.2 39.28 4.19 39.34 4.19H39.95V7.88ZM41.47 6.34H42.21C42.46 6.34 43.09 6.35 43.09 7.07C43.09 7.79 42.47 7.8 42.23 7.8H41.47V6.34Z" fill="white"/>
</svg>
