<svg width="163" height="18" viewBox="0 0 163 18" fill="none" xmlns="http://www.w3.org/2000/svg">
<path d="M9.98 13.05C9.98 12.85 9.87 12.83 9.76 12.83H8.63V2.84H9.76C9.87 2.84 9.98 2.82 9.98 2.62V1.89C9.98 1.78 9.96 1.67 9.76 1.67H0.29C0.1 1.67 0.08 1.78 0.08 1.89V2.62C0.08 2.73 0.1 2.84 0.29 2.84H1.43V12.83H0.29C0.19 12.83 0.08 12.85 0.08 13.05V13.78C0.08 13.98 0.19 14 0.29 14H4.04C4.15 14 4.25 13.98 4.25 13.78V13.05C4.25 12.94 4.24 12.83 4.04 12.83H2.9V2.93H7.15V12.83H6.02C5.91 12.83 5.8 12.85 5.8 13.05V13.78C5.8 13.98 5.91 14 6.02 14H9.76C9.87 14 9.98 13.98 9.98 13.78V13.05ZM18.74 9.63C18.74 6.24 17.01 5.11 15.23 5.11C13.31 5.11 11.58 6.37 11.58 9.72C11.58 13.14 13.34 14.25 15.05 14.25C16.98 14.25 18.74 13.01 18.74 9.63ZM15.18 13.14C13.13 13.14 13.05 10.72 13.05 9.55C13.05 8.62 13.14 6.22 15.16 6.22C17.18 6.22 17.27 8.69 17.27 9.61C17.27 10.94 17.1 13.14 15.18 13.14ZM22.87 6.48H26.16V13.78C26.16 13.98 26.27 14 26.38 14H28.54C28.64 14 28.75 13.98 28.75 13.78V13.1C28.75 12.99 28.73 12.88 28.54 12.88H27.53V6.48H28.54C28.64 6.48 28.75 6.46 28.75 6.26V5.58C28.75 5.47 28.73 5.36 28.54 5.36H20.49C20.38 5.36 20.27 5.38 20.27 5.58V6.26C20.27 6.46 20.38 6.48 20.49 6.48H21.5V12.88H20.49C20.38 12.88 20.27 12.9 20.27 13.1V13.78C20.27 13.98 20.38 14 20.49 14H23.87C23.98 14 24.09 13.98 24.09 13.78V13.1C24.09 12.99 24.07 12.88 23.87 12.88H22.87V6.48ZM34.01 16.74C34.01 16.54 33.9 16.52 33.79 16.52H32.64V13.46L32.71 13.51C33.32 13.96 34.12 14.25 34.76 14.25C35.97 14.25 37.77 13.39 37.77 9.5C37.77 7.52 37.32 6.62 37.12 6.3C36.53 5.32 35.63 5.11 34.91 5.11C33.99 5.11 33.22 5.5 32.48 6.1L32.39 6.17L32.32 5.99C32.24 5.79 32.15 5.36 31.76 5.36H30.14C30.03 5.36 29.92 5.38 29.92 5.58V6.26C29.92 6.46 30.03 6.48 30.14 6.48H31.16L31.2 6.64C31.27 7 31.27 7.3 31.27 7.61V16.52H30.25C30.05 16.52 30.03 16.63 30.03 16.74V17.42C30.03 17.62 30.14 17.64 30.25 17.64H33.79C33.9 17.64 34.01 17.62 34.01 17.42V16.74ZM32.64 7.2L32.75 7.12C33.16 6.85 34.03 6.31 34.71 6.31C34.96 6.31 35.68 6.4 36.02 7.27C36.1 7.47 36.29 7.97 36.29 9.54C36.29 10.27 36.26 11.52 35.95 12.16C35.59 12.96 34.84 13.05 34.51 13.05C34.1 13.05 33.52 12.9 32.64 12.27V7.2ZM46.73 9.63C46.73 6.24 45 5.11 43.22 5.11C41.29 5.11 39.56 6.37 39.56 9.72C39.56 13.14 41.33 14.25 43.04 14.25C44.96 14.25 46.73 13.01 46.73 9.63ZM43.16 13.14C41.11 13.14 41.04 10.72 41.04 9.55C41.04 8.62 41.13 6.22 43.15 6.22C45.16 6.22 45.25 8.69 45.25 9.61C45.25 10.94 45.09 13.14 43.16 13.14ZM49.63 7.16L49.68 6.6C49.79 5.54 50.22 4.19 51.95 3.4L55.31 1.85C55.69 1.69 55.6 1.53 55.57 1.45L55.26 0.82C55.13 0.57 54.88 0.68 54.79 0.72L51.8 2.07C50.71 2.57 49.61 3.36 49.05 4.93C48.69 5.95 48.58 7.23 48.58 8.85C48.58 10.08 48.65 11.21 49.1 12.18C49.81 13.69 51.12 14.25 52.29 14.25C53.73 14.25 54.52 13.48 54.97 12.92C55.6 12.11 55.85 11.32 55.85 9.77C55.85 8.65 55.75 7.56 54.99 6.58C54.34 5.76 53.5 5.36 52.45 5.36C51.79 5.36 51.26 5.56 50.85 5.83C50.45 6.08 50.02 6.51 49.73 7.16H49.63ZM52.27 6.48C53.01 6.48 54.38 6.84 54.38 9.81C54.38 11.23 54.07 13.14 52.27 13.14C50.24 13.14 50.17 10.71 50.17 9.77C50.17 6.85 51.52 6.48 52.27 6.48ZM64.78 6.48H65.44C65.64 6.48 65.66 6.37 65.66 6.26V5.58C65.66 5.47 65.64 5.36 65.44 5.36H62.31C62.2 5.36 62.1 5.38 62.1 5.58V6.19C62.1 6.39 62.2 6.4 62.31 6.4H63.38L61.86 12.22C61.68 12.9 61.63 13.15 61.59 13.48H61.56L61.54 13.41C61.49 13.17 61.41 12.81 61.2 12.18L59.24 6.4H60.39C60.6 6.4 60.6 6.31 60.6 6.21V5.58C60.6 5.47 60.59 5.36 60.39 5.36H57.09C56.99 5.36 56.88 5.38 56.88 5.58V6.26C56.88 6.46 56.99 6.48 57.09 6.48H57.81L60.41 13.84C60.48 14.02 60.55 14 60.64 14H61.29L60.91 15.13C60.66 15.89 60.31 16.66 59.52 16.66C59.06 16.66 58.44 16.36 58.12 16.14C57.99 16.05 57.9 15.96 57.81 15.96C57.72 15.96 57.7 16.02 57.69 16.05L57.33 16.77C57.27 16.9 57.22 16.99 57.7 17.26C58.35 17.62 58.97 17.78 59.54 17.78C60.41 17.78 60.95 17.4 61.25 17.08C61.77 16.54 62.15 15.57 62.92 12.88L64.78 6.48ZM67.51 6.48V13.78C67.51 13.98 67.62 14 67.73 14H68.67C68.74 14 68.81 14 68.86 13.91L71.62 9.14C72.03 8.44 71.69 8.92 72.48 7.5H72.54L72.48 9.25V13.78C72.48 13.98 72.59 14 72.7 14H74.86C74.97 14 75.07 13.98 75.07 13.78V13.1C75.07 12.99 75.06 12.88 74.86 12.88H73.85V5.58C73.85 5.47 73.83 5.36 73.63 5.36H72.7C72.63 5.36 72.56 5.36 72.5 5.45L69.75 10.22C69.53 10.62 69.35 10.99 68.88 11.88H68.83L68.88 10.11V5.58C68.88 5.47 68.86 5.36 68.67 5.36H66.51C66.4 5.36 66.29 5.38 66.29 5.58V6.26C66.29 6.46 66.4 6.48 66.51 6.48H67.51ZM72.34 1.72C72.03 1.67 72.01 1.76 72 1.87L71.94 2.14C71.8 2.82 71.28 3.09 70.72 3.09C70.2 3.09 69.64 2.82 69.49 2.14L69.44 1.87C69.42 1.78 69.4 1.71 69.24 1.71C69.21 1.71 69.15 1.72 69.12 1.72L68.4 1.85C68.31 1.87 68.2 1.9 68.2 2.07C68.2 2.12 68.2 2.19 68.25 2.37C68.36 2.79 68.63 3.24 68.94 3.51C69.57 4.06 70.32 4.08 70.72 4.08C71.29 4.08 71.92 3.99 72.5 3.51C72.92 3.15 73.08 2.75 73.18 2.37C73.22 2.23 73.26 2.14 73.26 2.07C73.26 1.99 73.18 1.89 73.04 1.85L72.34 1.72ZM82.95 10.11H86.42V13.78C86.42 13.98 86.53 14 86.64 14H88.8C88.91 14 89.01 13.98 89.01 13.78V13.1C89.01 12.99 89 12.88 88.8 12.88H87.79V6.48H88.8C88.91 6.48 89.01 6.46 89.01 6.26V5.58C89.01 5.47 89 5.36 88.8 5.36H85.41C85.31 5.36 85.2 5.38 85.2 5.58V6.26C85.2 6.46 85.31 6.48 85.41 6.48H86.42V9H82.95V5.58C82.95 5.38 82.84 5.36 82.73 5.36H80.57C80.46 5.36 80.36 5.38 80.36 5.58V6.26C80.36 6.46 80.46 6.48 80.57 6.48H81.58V12.88H80.57C80.46 12.88 80.36 12.9 80.36 13.1V13.78C80.36 13.98 80.46 14 80.57 14H83.96C84.06 14 84.17 13.98 84.17 13.78V13.1C84.17 12.99 84.15 12.88 83.96 12.88H82.95V10.11ZM96.77 12.42C96.75 12.34 96.7 12.33 96.68 12.33C96.66 12.33 96.66 12.33 96.64 12.33C96.57 12.34 96.5 12.38 96.43 12.42C95.83 12.76 95.18 13.05 94.45 13.05C93.78 13.05 92.9 12.74 92.41 11.89C92.12 11.39 91.96 10.67 91.96 10.06V9.97H97.13C97.25 9.97 97.33 9.91 97.33 9.66V9.57C97.33 8.74 97.24 6.98 96.3 5.99C95.89 5.54 95.15 5.11 94.07 5.11C92.79 5.11 92.05 5.7 91.6 6.21C90.76 7.18 90.49 8.4 90.49 9.68C90.49 10.62 90.61 11.82 91.42 12.88C91.85 13.44 92.72 14.25 94.41 14.25C95.22 14.25 95.92 14.02 96.44 13.78C97 13.51 97.11 13.41 97.11 13.33C97.11 13.3 97.11 13.26 97.09 13.23L96.77 12.42ZM91.96 8.85C91.96 8.35 92.09 7.74 92.3 7.29C92.77 6.33 93.58 6.22 93.96 6.22C94.55 6.22 95.2 6.46 95.56 7.32C95.85 8.01 95.85 8.73 95.85 8.85H91.96ZM105.5 6.48H108.79V13.78C108.79 13.98 108.9 14 109.01 14H111.17C111.28 14 111.39 13.98 111.39 13.78V13.1C111.39 12.99 111.37 12.88 111.17 12.88H110.16V6.48H111.17C111.28 6.48 111.39 6.46 111.39 6.26V5.58C111.39 5.47 111.37 5.36 111.17 5.36H103.12C103.02 5.36 102.91 5.38 102.91 5.58V6.26C102.91 6.46 103.02 6.48 103.12 6.48H104.13V12.88H103.12C103.02 12.88 102.91 12.9 102.91 13.1V13.78C102.91 13.98 103.02 14 103.12 14H106.51C106.62 14 106.72 13.98 106.72 13.78V13.1C106.72 12.99 106.71 12.88 106.51 12.88H105.5V6.48ZM118.03 12.88H117.02C116.82 12.88 116.81 12.99 116.81 13.1V13.78C116.81 13.98 116.91 14 117.02 14H120.4C120.51 14 120.62 13.98 120.62 13.78V13.1C120.62 12.99 120.6 12.88 120.4 12.88H119.4V5.63C119.4 5.54 119.38 5.36 119.16 5.36H113.56C113.46 5.36 113.35 5.38 113.35 5.58V6.26C113.35 6.46 113.46 6.48 113.56 6.48H114.57C114.59 7.56 114.54 9.01 114.41 10.18C114.23 11.84 114 12.88 112.63 13.03L112.47 13.05C112.36 13.06 112.14 13.03 112.2 13.35L112.31 13.98C112.32 14.11 112.39 14.25 112.72 14.25C113.28 14.25 113.67 14.07 113.82 14.02C115.08 13.46 115.42 12.04 115.6 10.69C115.72 9.68 115.83 7.83 115.83 6.78V6.48H118.03V12.88ZM122.69 5.63C122.6 5.67 122.29 5.77 122.29 5.94C122.29 5.99 122.29 6.04 122.31 6.08L122.58 6.8C122.6 6.84 122.63 6.89 122.72 6.89C122.8 6.89 122.85 6.84 122.98 6.78C123.62 6.48 124.34 6.31 124.97 6.31C126.36 6.31 126.5 7.18 126.5 7.93V8.58L126.13 8.6C124.74 8.67 123.28 8.92 122.47 9.82C122.08 10.27 121.79 10.92 121.79 11.71C121.79 13.32 122.78 14.25 124.13 14.25C124.88 14.25 125.78 13.98 126.65 13.12L126.72 13.05L126.78 13.21C126.9 13.6 127.03 14 127.4 14H128.93C129.04 14 129.15 13.98 129.15 13.78V13.1C129.15 12.99 129.13 12.88 128.93 12.88H128.09C127.87 12.31 127.87 11.82 127.87 11.08V7.63C127.87 6.94 127.76 6.12 126.97 5.56C126.36 5.13 125.5 5.11 125.03 5.11C124.2 5.11 123.39 5.32 122.94 5.52L122.69 5.63ZM126.5 12.02L126.4 12.13C126.04 12.49 125.24 13.14 124.45 13.14C123.88 13.14 123.16 12.76 123.16 11.61C123.16 10.99 123.37 10.54 123.97 10.18C124.67 9.75 125.84 9.7 126.43 9.7H126.5V12.02ZM133.78 6.48H135.35V8.33C135.35 8.53 135.46 8.55 135.56 8.55H136.3C136.5 8.55 136.52 8.44 136.52 8.33V5.58C136.52 5.47 136.5 5.36 136.3 5.36H129.89C129.79 5.36 129.68 5.38 129.68 5.58V8.31C129.68 8.51 129.79 8.53 129.89 8.53H130.63C130.83 8.53 130.85 8.42 130.85 8.31V6.48H132.41V12.88H131.41C131.21 12.88 131.19 12.99 131.19 13.1V13.78C131.19 13.98 131.3 14 131.41 14H134.79C134.99 14 135.01 13.89 135.01 13.78V13.1C135.01 12.99 134.99 12.88 134.79 12.88H133.78V6.48ZM138.83 6.48V13.78C138.83 13.98 138.94 14 139.04 14H139.98C140.05 14 140.12 14 140.18 13.91L142.93 9.14C143.35 8.44 143 8.92 143.8 7.5H143.85L143.8 9.25V13.78C143.8 13.98 143.9 14 144.01 14H146.17C146.28 14 146.39 13.98 146.39 13.78V13.1C146.39 12.99 146.37 12.88 146.17 12.88H145.16V5.58C145.16 5.47 145.15 5.36 144.95 5.36H144.01C143.94 5.36 143.87 5.36 143.81 5.45L141.06 10.22C140.84 10.62 140.66 10.99 140.2 11.88H140.14L140.2 10.11V5.58C140.2 5.47 140.18 5.36 139.98 5.36H137.82C137.71 5.36 137.6 5.38 137.6 5.58V6.26C137.6 6.46 137.71 6.48 137.82 6.48H138.83ZM151.48 6.48H153.05V8.33C153.05 8.53 153.16 8.55 153.26 8.55H154C154.2 8.55 154.22 8.44 154.22 8.33V5.58C154.22 5.47 154.2 5.36 154 5.36H147.59C147.49 5.36 147.38 5.38 147.38 5.58V8.31C147.38 8.51 147.49 8.53 147.59 8.53H148.33C148.53 8.53 148.55 8.42 148.55 8.31V6.48H150.12V12.88H149.11C148.91 12.88 148.89 12.99 148.89 13.1V13.78C148.89 13.98 149 14 149.11 14H152.49C152.69 14 152.71 13.89 152.71 13.78V13.1C152.71 12.99 152.69 12.88 152.49 12.88H151.48V6.48ZM157.99 8.76V5.58C157.99 5.38 157.88 5.36 157.77 5.36H155.61C155.5 5.36 155.4 5.38 155.4 5.58V6.26C155.4 6.46 155.5 6.48 155.61 6.48H156.62V12.88H155.61C155.5 12.88 155.4 12.9 155.4 13.1V13.78C155.4 13.98 155.5 14 155.61 14H159.25C159.99 14 160.76 13.91 161.41 13.42C161.99 12.99 162.36 12.29 162.36 11.41C162.36 10.53 161.99 9.81 161.43 9.37C160.96 9.01 160.26 8.76 159.39 8.76H157.99ZM157.99 9.88H159.23C159.54 9.88 159.99 9.91 160.38 10.17C160.78 10.42 160.99 10.83 160.99 11.41C160.99 11.88 160.81 12.22 160.6 12.43C160.4 12.63 159.99 12.88 159.23 12.88H157.99V9.88Z" fill="black"/>
</svg>
